<?xml version="1.0" encoding="UTF-8" standalone="no"?>
<svg
   xmlns:dc="http://purl.org/dc/elements/1.1/"
   xmlns:cc="http://creativecommons.org/ns#"
   xmlns:rdf="http://www.w3.org/1999/02/22-rdf-syntax-ns#"
   xmlns:svg="http://www.w3.org/2000/svg"
   xmlns="http://www.w3.org/2000/svg"
   xmlns:sodipodi="http://sodipodi.sourceforge.net/DTD/sodipodi-0.dtd"
   xmlns:inkscape="http://www.inkscape.org/namespaces/inkscape"
   version="1.1"
   id="svg842"
   xml:space="preserve"
   width="623.62134"
   height="279.68399"
   viewBox="0 0 623.62134 279.68399"
   sodipodi:docname="ZHMS-Logo1-ME.svg"
   inkscape:version="1.0.1 (3bc2e813f5, 2020-09-07)"><metadata
     id="metadata848"><rdf:RDF><cc:Work
         rdf:about=""><dc:format>image/svg+xml</dc:format><dc:type
           rdf:resource="http://purl.org/dc/dcmitype/StillImage" /><dc:title></dc:title></cc:Work></rdf:RDF></metadata><defs
     id="defs846"><clipPath
       clipPathUnits="userSpaceOnUse"
       id="clipPath858"><path
         d="M 0,595.275 H 841.89 V 0 H 0 Z"
         id="path856" /></clipPath><clipPath
       clipPathUnits="userSpaceOnUse"
       id="clipPath874"><path
         d="M 0,595.275 H 841.89 V 0 H 0 Z"
         id="path872" /></clipPath></defs><sodipodi:namedview
     pagecolor="#ffffff"
     bordercolor="#666666"
     borderopacity="1"
     objecttolerance="10"
     gridtolerance="10"
     guidetolerance="10"
     inkscape:pageopacity="0"
     inkscape:pageshadow="2"
     inkscape:window-width="1920"
     inkscape:window-height="1051"
     id="namedview844"
     showgrid="false"
     inkscape:zoom="2.2080537"
     inkscape:cx="311.81067"
     inkscape:cy="139.842"
     inkscape:window-x="-9"
     inkscape:window-y="-9"
     inkscape:window-maximized="1"
     inkscape:current-layer="g850"
     inkscape:document-rotation="0" /><g
     id="g850"
     inkscape:groupmode="layer"
     inkscape:label="ZHMS-Logo1"
     transform="matrix(1.3333333,0,0,-1.3333333,-249.44933,642.51867)"><g
       id="g852"><g
         id="g854"
         clip-path="url(#clipPath858)"><g
           id="g860"
           transform="translate(541,366.2754)"><path
             d="M 0,0 C 0,-27.673 -10.757,-52.846 -28.336,-71.603 -47.594,-92.151 -208.885,24.052 -204.997,35 c 14.482,40.782 53.561,70 99.497,70 C -47.234,105 0,57.99 0,0"
             style="fill:#f4e122;fill-opacity:1;fill-rule:nonzero;stroke:none"
             id="path862" /></g><g
           id="g864"
           transform="translate(541,366.2754)"><path
             d="M 0,0 C 0,-27.673 -10.757,-52.846 -28.336,-71.603 -47.594,-92.151 -208.885,24.052 -204.997,35 c 14.482,40.782 53.561,70 99.497,70 C -47.234,105 0,57.99 0,0 Z"
             style="fill:none;stroke:#f46b17;stroke-width:6.062;stroke-linecap:butt;stroke-linejoin:miter;stroke-miterlimit:4;stroke-dasharray:none;stroke-opacity:1"
             id="path866" /></g></g></g><g
       id="g868"><g
         id="g870"
         clip-path="url(#clipPath874)"><g
           id="g876"
           transform="translate(192.4072,356.2793)"><path
             d="m 0,0 c -0.378,16.432 19.256,28.787 30.966,37.318 18.992,13.836 39.759,25.147 62.538,31.342 29.565,8.041 62.155,3.723 89.714,-9.137 28.374,-13.24 50.065,-33.929 73.798,-53.74 23.66,-19.748 50.216,-36.97 82.336,-31.965 15.209,2.371 30.255,7.522 42.779,16.588 13.139,9.51 26.435,24.785 43.724,25.798 12.655,0.741 30.932,-6.681 28.801,-22.282 C 452.838,-19.41 440.662,-29.08 430.449,-36.242 374.348,-75.582 308.398,-92.043 247.961,-50.496 223.089,-33.398 202.891,-9.93 177.732,6.246 157.267,19.404 132.576,28.112 108.159,22.129 72.93,13.496 21.43,-49.004 1.295,-6.818 0.223,-4.571 0.051,-2.199 0,0"
             style="fill:#40b940;fill-opacity:1;fill-rule:nonzero;stroke:none"
             id="path878" /></g><g
           id="g880"
           transform="translate(192.4072,356.2793)"><path
             d="m 0,0 c -0.378,16.432 19.256,28.787 30.966,37.318 18.992,13.836 39.759,25.147 62.538,31.342 29.565,8.041 62.155,3.723 89.714,-9.137 28.374,-13.24 50.065,-33.929 73.798,-53.74 23.66,-19.748 50.216,-36.97 82.336,-31.965 15.209,2.371 30.255,7.522 42.779,16.588 13.139,9.51 26.435,24.785 43.724,25.798 12.655,0.741 30.932,-6.681 28.801,-22.282 C 452.838,-19.41 440.662,-29.08 430.449,-36.242 374.348,-75.582 308.398,-92.043 247.961,-50.496 223.089,-33.398 202.891,-9.93 177.732,6.246 157.267,19.404 132.576,28.112 108.159,22.129 72.93,13.496 21.43,-49.004 1.295,-6.818 0.223,-4.571 0.051,-2.199 0,0 Z"
             style="fill:none;stroke:#40b940;stroke-width:2;stroke-linecap:butt;stroke-linejoin:miter;stroke-miterlimit:4;stroke-dasharray:none;stroke-opacity:1"
             id="path882" /></g><g
           id="g884"
           transform="translate(401.8369,338.4424)"><path
             d="m 0,0 c -0.025,0.336 -12.5,15.333 6.5,31.833 8.34,7.242 23.254,6.754 37.502,-4.166 26.248,-20.121 53.301,-40.518 85.42,-35.512 15.209,2.371 30.256,7.522 42.779,16.588 13.139,9.51 24.135,23.257 42.467,25.59 13.143,1.674 34.334,-3 31,-25 C 243.652,-3.97 230.881,-12.838 220.668,-20 164.568,-59.341 98.139,-76.675 38.002,-33.333 29.906,-27.5 0.437,-5.616 0,0"
             style="fill:#2f6aba;fill-opacity:1;fill-rule:nonzero;stroke:none"
             id="path886" /></g><g
           id="g888"
           transform="translate(213.6665,352.061)"><path
             d="m 0,0 c 136.369,0 -63.619,-0.12 72.788,-0.12 h 1.525 0.572 0.382 0.381 c 6.786,0 12.39,3.154 13,6.826 3.622,20.563 5.984,31.407 8.044,42.163 1.144,5.054 4.347,23.846 4.994,21.211 l 1.754,-7.041 c 1.792,-19.872 1.144,-36.85 2.134,-56.895 l 0.534,-25.877 0.381,-6.178 0.383,-5.875 0.38,-5.615 0.382,-5.012 0.571,-4.535 0.381,-3.888 0.382,-3.629 0.42,-2.809 0.342,-2.246 0.61,-1.684 0.381,-0.865 0.382,-0.26 0.381,0.52 0.344,1.123 0.61,1.686 0.381,2.289 0.38,2.505 0.383,2.764 0.379,3.111 0.382,3.369 0.381,3.629 0.572,3.629 0.381,3.932 0.382,3.931 0.381,3.93 0.572,3.889 0.382,3.975 0.381,3.628 0.381,3.37 0.381,3.066 0.381,2.809 0.572,2.808 0.381,2.246 c 2.135,12.485 4.956,37.887 9.341,50.026 1.257,3.844 4.537,14.17 6.099,8.381 2.478,-10.973 4.499,-42.942 7.053,-53.914 l 0.382,-1.685 0.381,-1.123 0.38,-1.08 0.383,-1.21 0.57,-0.82 0.382,-0.821 0.381,-0.778 0.572,-0.605 0.382,-0.82 0.381,-0.605 0.381,-0.562 0.382,-0.216 0.38,-0.605 0.382,-0.302 0.572,-0.518 0.38,-0.303 0.382,-0.863 0.381,-0.52 0.572,-1.123 0.381,-1.166 0.382,-1.037 0.381,-1.426 0.381,-1.166 0.381,-1.123 0.572,-1.123 0.381,-0.82 0.382,-0.563 0.381,-0.82 0.572,-0.606 0.381,-0.56 0.382,-0.52 0.381,-0.604 0.38,-0.302 0.382,-0.519 0.381,-0.301 h 0.572 l 0.382,-0.26 h 0.381 l 0.571,0.26 0.381,0.301 0.382,0.821 0.381,0.864 0.381,1.123 0.382,1.123 0.38,1.642 0.572,1.728 0.382,1.642 0.381,1.727 0.381,1.685 0.381,1.944 0.573,1.685 0.381,1.988 0.381,1.641 0.382,1.987 0.38,1.944 0.382,2.289 0.571,1.902 0.382,2.247 0.382,1.986 0.38,1.901 0.382,1.988 0.381,1.727 0.57,1.642 0.383,1.383 0.381,1.426 0.38,1.166 0.574,1.037 0.381,0.906 0.38,0.519 0.381,0.345 h 0.383 l 0.381,-0.345 0.381,-0.822 0.572,-0.82 0.381,-1.166 0.381,-1.08 0.381,-1.383 0.572,-1.426 0.381,-1.683 0.381,-1.686 0.382,-1.943 0.381,-1.988 0.381,-1.944 0.382,-1.987 0.572,-1.902 0.381,-2.03 0.38,-1.684 0.572,-1.383 0.382,-1.123 0.381,-0.821 0.382,-0.302 h 0.38 0.382 l 0.38,0.605 0.573,0.518 0.381,0.821 0.381,0.864 0.382,0.518 0.57,0.303 0.381,0.302 h 0.383 0.381 l 0.38,-0.302 0.382,-0.519 0.381,-0.864 0.572,-0.82 0.381,-1.124 0.383,-1.123 0.38,-1.382 0.571,-1.123 0.383,-1.166 0.381,-1.124 0.381,-0.519 0.38,-0.605 h 0.381 0.573 0.381 l 0.382,0.303 0.381,0.519 0.381,0.604 0.572,0.562 0.381,0.561 0.381,0.865 0.381,0.518 0.382,0.907 0.572,0.216 0.38,0.562 0.383,0.302 0.381,0.518 0.381,0.605 0.38,0.605 0.381,0.519 0.572,0.518 0.381,0.302 0.383,0.26 h 0.381 0.571 l 0.382,-0.26 0.381,-0.302 0.381,-0.518 0.382,-0.519 0.38,-0.605 0.383,-0.82 0.57,-0.605 0.383,-0.778 0.38,-0.605 0.571,-0.604 0.383,-0.216 0.381,-0.303 h 0.381 0.381 0.381 l 0.382,0.303 0.571,0.216 0.383,0.604 0.38,0.605 0.381,0.778 0.573,1.123 0.381,0.907 0.382,1.037 0.379,1.166 0.381,1.426 0.383,1.382 0.381,1.425 0.572,1.383 0.382,1.34 0.38,1.684 0.571,1.426 0.382,1.382 0.381,1.123 0.382,0.821 0.38,0.605 0.382,0.26 0.381,0.302 0.572,-0.302 0.381,-0.26 0.382,-0.605 0.38,-0.821 0.572,-0.82 0.38,-0.82 0.383,-1.168 0.383,-0.821 0.381,-1.08 0.38,-0.906 0.382,-0.519 0.571,-0.821 0.381,-0.605 0.381,-0.561 0.381,-0.821 0.382,-0.821 0.571,-1.166 0.383,-0.821 0.381,-1.123 0.381,-0.864 0.38,-1.037 0.572,-0.907 0.381,-0.821 0.382,-0.864 0.381,-0.518 0.383,-0.605 0.379,-0.518 h 0.382 0.573 l 0.381,0.216 0.38,0.302 0.572,0.605 0.38,0.518 0.381,0.562 0.382,0.605 0.383,0.518 0.381,0.907 0.38,0.519 0.573,0.259 0.381,0.259 0.382,0.302 0.38,0.26 h 0.609 l 0.343,0.302 0.419,0.302 0.384,0.216 0.38,0.303 0.381,0.302 0.381,0.303 0.571,0.302 h 0.382 0.381 0.572 0.381 l 0.38,-0.302 h 0.385 0.381 l 0.38,-0.303 h 0.38 0.572 l 162.335,0.334"
             style="fill:none;stroke:#f47216;stroke-width:8;stroke-linecap:round;stroke-linejoin:miter;stroke-miterlimit:4;stroke-dasharray:none;stroke-opacity:1"
             id="path890" /></g></g></g><g
       aria-label="ZHMS"
       transform="matrix(0.75,0,0,-1,460.668,363.5288)"
       id="text894"
       style="font-variant:normal;font-weight:normal;font-stretch:normal;font-size:60px;font-family:'Arial Rounded MT Bold';-inkscape-font-specification:ArialRoundedMTBold;writing-mode:lr-tb;fill:#2c5fa1;fill-opacity:1;fill-rule:nonzero;stroke:none"><path
         d="M 3.5449219,-10.019531 25.605469,-36.416016 H 6.6503906 q -1.9921875,0 -3.0175781,-0.878906 -0.9960937,-0.878906 -0.9960937,-2.314453 0,-1.494141 0.9960937,-2.402344 1.0253906,-0.9375 3.0175781,-0.9375 H 31.083984 q 4.746094,0 4.746094,4.423828 0,2.109375 -0.791016,3.369141 -0.791015,1.259766 -3.193359,4.072266 l -20.625,24.5507809 h 22.734375 q 2.021484,0 3.017578,0.8496094 0.996094,0.8203125 0.996094,2.3144531 0,1.5527344 -0.996094,2.46093747 Q 35.976562,0 33.955078,0 H 6.0644531 Q 3.2226563,0 1.7871094,-1.2597656 0.3515625,-2.5488281 0.3515625,-4.6875 q 0,-0.7324219 0.234375,-1.3476562 0.234375,-0.6152344 0.6152344,-1.1425782 0.4101562,-0.5566406 1.1132812,-1.3769531 0.703125,-0.8496094 1.2304688,-1.4648435 z"
         id="path1494" /><path
         d="m 52.207264,-38.408203 v 12.304687 h 18.779297 v -12.304687 q 0,-2.636719 1.171875,-3.955078 1.201172,-1.31836 3.134765,-1.31836 1.962891,0 3.164063,1.31836 1.230469,1.289062 1.230469,3.955078 v 33.8378905 q 0,2.6660156 -1.230469,3.984375 -1.230469,1.31835937 -3.164063,1.31835937 -1.96289,0 -3.134765,-1.31835937 -1.171875,-1.3476562 -1.171875,-3.984375 V -19.013672 H 52.207264 v 14.4433595 q 0,2.6660156 -1.230469,3.984375 -1.230469,1.31835937 -3.164062,1.31835937 -1.962891,0 -3.134766,-1.31835937 -1.171875,-1.3476562 -1.171875,-3.984375 V -38.408203 q 0,-2.636719 1.142578,-3.955078 1.171875,-1.31836 3.164063,-1.31836 1.96289,0 3.164062,1.31836 1.230469,1.289062 1.230469,3.955078 z"
         id="path1496" /><path
         d="M 103.54945,-6.4746094 96.664688,-33.837891 v 29.6484379 q 0,2.4609375 -1.113281,3.69140622 -1.083985,1.23046875 -2.900391,1.23046875 -1.757812,0 -2.871094,-1.20117187 -1.113281,-1.2304687 -1.113281,-3.7207031 V -38.173828 q 0,-2.8125 1.464844,-3.779297 1.464844,-0.996094 3.955078,-0.996094 h 2.695313 q 2.43164,0 3.515624,0.439453 1.11328,0.439454 1.64063,1.582032 0.52734,1.142578 1.20117,3.720703 l 6.24023,23.52539 6.24024,-23.52539 q 0.67382,-2.578125 1.20117,-3.720703 0.52734,-1.142578 1.61133,-1.582032 1.11328,-0.439453 3.54492,-0.439453 h 2.69531 q 2.49023,0 3.95508,0.996094 1.46484,0.966797 1.46484,3.779297 v 33.9843749 q 0,2.4609375 -1.11328,3.69140622 -1.08398,1.23046875 -2.92969,1.23046875 -1.72851,0 -2.84179,-1.23046875 -1.11328,-1.23046872 -1.11328,-3.69140622 V -33.837891 l -6.88477,27.3632816 q -0.67383,2.6660156 -1.11328,3.9257813 -0.41016,1.2304687 -1.55274,2.25585935 -1.14257,1.02539062 -3.16406,1.02539062 -1.52344,0 -2.57812,-0.67382812 -1.05469,-0.64453125 -1.64063,-1.66992185 -0.58594,-1.0253907 -0.9375,-2.2558594 -0.32226,-1.2597656 -0.67383,-2.6074219 z"
         id="path1498" /><path
         d="m 171.66422,-12.890625 q 0,3.8964844 -2.02149,7.0019531 -1.99219,3.1054688 -5.85937,4.8632813 -3.86719,1.75781247 -9.16993,1.75781247 -6.35742,0 -10.48828,-2.40234377 -2.92968,-1.7285156 -4.77539,-4.5996093 -1.8164,-2.9003907 -1.8164,-5.6249998 0,-1.582032 1.08398,-2.695313 1.11328,-1.142578 2.8125,-1.142578 1.37695,0 2.31445,0.878906 0.9668,0.878907 1.64063,2.607422 0.82031,2.050781 1.75781,3.4277346 0.9668,1.3769532 2.69531,2.2851563 1.72852,0.8789062 4.54102,0.8789062 3.86719,0 6.26953,-1.7871093 2.43164,-1.8164063 2.43164,-4.5117188 0,-2.138672 -1.31836,-3.457031 -1.28906,-1.347656 -3.36914,-2.050781 -2.05078,-0.703125 -5.50781,-1.494141 -4.62891,-1.083984 -7.76367,-2.519531 -3.10547,-1.464844 -4.95118,-3.955078 -1.8164,-2.519532 -1.8164,-6.240235 0,-3.544922 1.93359,-6.298828 1.9336,-2.753906 5.59571,-4.21875 3.6621,-1.494141 8.61328,-1.494141 3.95507,0 6.82617,0.996094 2.90039,0.966797 4.80469,2.607422 1.90429,1.611328 2.7832,3.398438 0.87891,1.787109 0.87891,3.486328 0,1.552734 -1.11329,2.8125 -1.08398,1.230468 -2.72461,1.230468 -1.49414,0 -2.28515,-0.732421 -0.76172,-0.761719 -1.66992,-2.460938 -1.17188,-2.431641 -2.8125,-3.779297 Q 157.54312,-37.5 153.91031,-37.5 q -3.36914,0 -5.44922,1.494141 -2.05078,1.464843 -2.05078,3.544922 0,1.289062 0.70312,2.226562 0.70313,0.9375 1.9336,1.611328 1.23047,0.673828 2.49023,1.054688 1.25977,0.380859 4.16016,1.113281 3.63281,0.849609 6.5625,1.875 2.95898,1.025391 5.00976,2.490234 2.08008,1.464844 3.22266,3.720703 1.17188,2.226563 1.17188,5.478516 z"
         id="path1500" /></g></g></svg>
